<?xml version="1.0" standalone="no"?>
<!DOCTYPE svg PUBLIC "-//W3C//DTD SVG 20010904//EN"
 "http://www.w3.org/TR/2001/REC-SVG-20010904/DTD/svg10.dtd">
<svg version="1.0" xmlns="http://www.w3.org/2000/svg"
 width="736.000000pt" height="736.000000pt" viewBox="0 0 736.000000 736.000000"
 preserveAspectRatio="xMidYMid meet">

<g transform="translate(0.000000,736.000000) scale(0.100000,-0.100000)"
fill="#000000" stroke="none">
<path d="M3487 7199 c-15 -6 -30 -21 -33 -35 -6 -21 -12 -24 -57 -24 -28 0
-84 -9 -125 -21 -79 -22 -125 -22 -222 1 -70 16 -106 2 -135 -53 -24 -46 -20
-50 73 -68 71 -13 179 -7 277 16 160 38 265 -3 265 -104 0 -37 -37 -90 -79
-115 -19 -11 -125 -61 -235 -111 -223 -101 -240 -115 -208 -169 24 -41 42 -45
42 -8 0 40 9 62 25 62 8 0 16 -8 20 -18 5 -19 44 -42 69 -42 10 0 11 8 3 40
-9 33 -8 42 8 60 29 32 84 26 170 -19 85 -46 147 -58 199 -41 43 14 46 26 8
33 -15 3 -52 22 -81 41 -30 20 -65 36 -81 36 -38 0 -46 16 -18 31 43 23 117
16 200 -18 42 -18 89 -33 105 -33 26 1 27 1 8 12 -11 6 -38 31 -61 55 -24 26
-53 45 -72 49 -35 7 -41 18 -16 28 34 13 84 5 135 -23 30 -15 76 -40 103 -55
27 -14 60 -26 74 -26 23 0 22 3 -21 49 -46 49 -67 98 -67 158 0 17 5 35 10 38
6 4 10 -8 10 -28 0 -33 2 -35 73 -62 57 -23 85 -42 138 -94 93 -93 122 -152
127 -267 4 -84 2 -96 -27 -166 -54 -129 -126 -188 -456 -378 -309 -177 -364
-217 -566 -416 -112 -110 -116 -116 -126 -171 -10 -51 -9 -62 8 -92 11 -18 18
-36 15 -38 -13 -13 -64 18 -91 55 -32 44 -45 51 -45 26 0 -9 17 -31 38 -49
l37 -33 0 -105 c0 -89 3 -108 19 -126 11 -12 14 -21 7 -21 -21 0 -90 52 -111
84 l-20 31 0 -28 c0 -19 12 -38 40 -63 l40 -36 0 -92 c0 -86 2 -94 25 -116 14
-13 25 -28 25 -33 0 -14 -61 1 -82 20 -17 15 -18 15 -18 0 0 -19 19 -38 69
-70 22 -14 39 -36 48 -62 7 -22 21 -47 30 -55 14 -14 15 -13 9 5 -48 134 -44
281 10 444 19 58 44 121 56 140 36 59 136 188 176 227 36 35 206 151 368 251
91 56 323 224 486 351 136 105 188 164 238 266 33 67 42 98 50 177 17 154 -11
315 -68 402 -50 75 -164 187 -216 211 -89 42 -121 28 -46 -19 29 -19 49 -43
73 -92 29 -60 37 -68 70 -76 21 -5 36 -14 34 -21 -7 -21 -94 -35 -155 -25 -31
5 -60 9 -64 9 -3 0 -33 20 -66 45 -46 34 -68 45 -96 45 -25 0 -35 4 -30 11 13
21 81 2 140 -40 62 -43 144 -66 191 -55 l24 6 -23 25 c-13 13 -35 48 -49 76
-33 67 -93 106 -170 112 -30 2 -56 4 -59 5 -3 0 2 4 9 9 8 5 37 7 63 4 34 -4
48 -2 48 6 0 16 61 41 99 41 16 0 37 -7 46 -16 15 -15 17 -15 35 1 31 28 96
31 129 7 17 -12 32 -17 37 -12 5 5 27 15 48 23 l38 13 -89 36 c-124 50 -137
52 -249 28 -155 -33 -252 -28 -373 17 -73 27 -173 38 -214 22z m457 -224 c13
-14 33 -25 44 -25 28 0 54 -28 50 -53 -5 -33 -27 -33 -25 0 2 26 -1 28 -35 31
-29 2 -37 8 -40 25 -2 18 -9 22 -38 20 -33 -1 -34 0 -16 13 27 19 33 18 60
-11z"/>
<path d="M2706 7024 c-18 -17 -19 -22 -16 -76 1 -32 -1 -36 -19 -31 -12 3 -24
9 -27 14 -3 5 -12 9 -20 9 -24 0 19 -71 58 -97 56 -36 107 -46 219 -41 90 4
124 11 249 52 119 39 155 47 200 44 30 -2 62 -8 71 -12 11 -5 18 -2 22 8 9 23
-24 36 -91 39 -56 2 -57 3 -54 30 1 15 -2 27 -8 27 -5 0 -10 -13 -10 -30 0
-22 -5 -30 -17 -30 -10 0 -29 -3 -42 -7 -22 -6 -23 -4 -16 26 5 24 3 31 -9 31
-10 0 -16 -12 -18 -37 l-3 -37 -90 -29 c-49 -16 -121 -32 -160 -34 -60 -4 -76
-1 -115 19 -56 30 -94 95 -85 146 7 36 3 39 -19 16z"/>
<path d="M3415 6995 c69 -25 84 -71 40 -124 -27 -32 -170 -108 -350 -186 -122
-54 -130 -59 -121 -74 5 -7 53 13 134 53 70 35 172 83 226 107 151 66 196 122
150 188 -17 24 -71 51 -101 51 -10 -1 0 -7 22 -15z"/>
<path d="M2890 6943 l0 -48 25 44 c14 23 25 45 25 47 0 2 -11 4 -25 4 -23 0
-25 -3 -25 -47z"/>
<path d="M2985 6969 c-4 -5 -3 -28 0 -51 8 -44 17 -38 29 18 5 23 3 33 -8 37
-9 4 -18 2 -21 -4z"/>
<path d="M4252 6910 c58 -64 66 -70 103 -70 32 1 36 3 23 11 -10 5 -31 30 -48
54 -34 49 -74 75 -115 75 -25 0 -23 -4 37 -70z"/>
<path d="M3087 6963 c-9 -9 -8 -45 1 -60 5 -8 12 2 19 27 8 30 7 40 -2 40 -6
0 -15 -3 -18 -7z"/>
<path d="M2256 6899 c-21 -16 -77 -40 -124 -55 -84 -25 -89 -29 -187 -123
-111 -108 -154 -137 -265 -177 -148 -53 -262 -121 -280 -168 -5 -14 -3 -29 6
-43 13 -21 12 -24 -23 -47 -57 -38 -66 -46 -111 -108 -40 -55 -69 -80 -125
-108 -50 -25 -87 -76 -87 -120 0 -21 3 -41 8 -43 4 -3 27 2 52 9 58 17 154 93
179 141 29 59 99 131 155 163 41 24 63 30 111 30 114 0 165 -29 165 -95 0 -36
-74 -198 -159 -350 -64 -114 -73 -152 -43 -177 36 -31 41 -30 35 8 l-6 37 24
-16 c13 -9 36 -17 52 -17 l28 0 -27 35 c-30 40 -34 83 -10 121 24 35 60 55
129 71 67 16 101 33 116 60 8 17 3 18 -64 13 -54 -4 -79 -10 -95 -25 l-22 -20
3 25 c5 33 72 82 161 115 80 31 114 50 121 68 7 19 -125 4 -157 -17 -48 -31
-30 9 27 60 73 67 203 119 272 108 60 -8 54 4 -18 46 -42 24 -64 30 -114 30
-35 0 -63 4 -63 10 0 6 18 10 41 10 29 0 50 7 71 25 23 19 41 25 79 25 70 0
139 -41 139 -81 0 -25 11 -29 56 -19 48 11 109 -15 150 -63 26 -31 28 -58 9
-123 -6 -18 -1 -24 29 -34 92 -30 121 -145 55 -216 l-20 -21 36 -36 c25 -25
35 -44 35 -66 0 -44 -22 -91 -58 -125 l-31 -29 26 -44 c23 -39 25 -51 19 -104
-7 -67 -22 -103 -60 -138 l-26 -24 20 -32 c30 -48 26 -104 -11 -154 l-30 -43
25 -25 c40 -40 36 -101 -8 -150 l-34 -38 44 -27 44 -27 0 139 c0 148 18 299
50 415 35 132 45 217 45 405 0 171 -2 193 -28 290 -40 148 -67 198 -143 269
-77 72 -146 114 -232 141 l-63 20 -57 -29 c-65 -33 -128 -46 -172 -36 -45 10
-31 16 41 19 48 1 76 9 114 30 60 33 192 152 181 163 -4 5 -35 8 -69 8 -50 0
-76 -7 -138 -36 -79 -38 -149 -57 -149 -41 0 6 16 13 35 16 20 4 72 25 117 47
93 44 133 48 220 22 60 -19 75 -33 36 -33 -25 0 -96 -53 -129 -94 l-20 -25 28
-7 c105 -23 172 -59 265 -144 49 -44 76 -78 97 -123 36 -78 87 -279 95 -378 8
-96 -17 -331 -50 -469 -36 -149 -54 -304 -54 -453 l0 -130 51 -54 c55 -58 59
-74 10 -49 -41 22 -42 21 -27 -21 10 -31 22 -43 68 -65 31 -15 68 -44 84 -63
16 -20 44 -53 62 -72 40 -43 35 -53 -11 -24 -25 15 -51 21 -93 21 l-58 0 44
-45 44 -45 81 0 c74 0 86 -3 165 -42 l85 -43 -79 -7 c-43 -4 -81 -10 -84 -13
-10 -10 68 -35 109 -35 22 0 81 14 131 31 99 35 150 35 211 2 l32 -18 -45 -5
c-42 -5 -139 -55 -140 -72 0 -5 11 -8 25 -8 14 0 25 -5 25 -11 0 -16 -104 -3
-188 23 -37 11 -114 42 -171 69 -102 48 -109 53 -256 202 -109 109 -165 174
-200 232 -179 295 -267 390 -438 473 -223 109 -387 148 -580 138 -158 -8 -257
-29 -347 -74 -72 -35 -75 -39 -81 -77 -14 -98 -175 -325 -231 -325 -13 0 4 21
52 66 55 53 80 85 115 156 27 54 45 104 45 124 l0 35 -31 -36 c-20 -22 -67
-53 -123 -80 -111 -54 -163 -104 -182 -172 l-13 -48 0 42 c-1 24 -12 71 -25
105 -25 69 -22 99 13 118 18 9 20 17 15 55 -7 49 17 100 60 128 22 15 23 19
13 55 -8 31 -7 52 6 99 18 62 21 103 11 141 -11 38 -20 24 -20 -30 0 -55 -31
-129 -80 -194 -39 -51 -72 -136 -90 -235 -19 -108 -36 -145 -145 -317 -51 -81
-79 -136 -80 -156 -2 -60 2 -81 22 -98 23 -20 24 -30 2 -71 -10 -20 -19 -69
-23 -133 -6 -92 -10 -108 -43 -167 -28 -48 -37 -77 -37 -111 0 -45 16 -96 31
-96 16 0 70 78 91 130 15 40 23 90 28 180 7 141 24 191 74 221 62 38 122 15
154 -58 11 -26 39 -131 62 -233 49 -216 55 -237 62 -225 3 6 -19 118 -48 250
-58 262 -60 275 -43 258 11 -11 119 -479 119 -515 0 -40 109 -54 151 -18 l24
19 -41 1 c-58 0 -72 20 -34 49 38 28 38 41 0 41 -40 0 -70 31 -70 73 0 25 15
53 60 113 40 52 60 88 60 107 0 23 -3 26 -17 18 -40 -21 -103 -84 -103 -102 0
-10 -4 -19 -10 -19 -5 0 -10 21 -10 48 0 39 8 60 45 120 47 76 58 106 28 80
-10 -9 -34 -23 -54 -31 -20 -8 -45 -26 -56 -40 -24 -31 -33 -26 -33 17 1 83
75 163 191 206 31 11 76 38 100 60 39 36 41 39 16 30 -16 -6 -61 -10 -101 -10
-74 0 -154 -20 -168 -43 -4 -6 -10 -9 -13 -5 -13 12 35 48 78 59 30 7 49 19
60 37 41 69 118 140 194 179 244 126 466 135 688 28 98 -47 129 -68 208 -142
143 -134 236 -258 276 -368 51 -138 204 -427 321 -605 214 -329 371 -489 480
-492 39 -1 48 -16 15 -24 l-25 -6 22 -40 c29 -51 81 -78 150 -78 49 0 58 -13
15 -22 -18 -3 -17 -5 4 -32 29 -37 92 -65 149 -67 25 -1 37 -3 28 -6 -36 -9
-7 -59 51 -88 27 -13 49 -16 95 -11 43 4 56 3 44 -5 -10 -5 -15 -16 -11 -25 8
-22 101 -64 140 -64 27 0 34 4 39 28 14 63 37 139 50 165 8 15 11 33 7 40 -12
20 -14 39 -7 104 4 46 13 74 36 108 41 61 45 52 8 -17 -22 -41 -30 -70 -31
-112 -1 -31 1 -59 4 -62 3 -3 23 21 45 53 38 56 72 93 72 78 0 -3 -21 -34 -47
-67 -55 -71 -97 -174 -123 -301 -49 -237 -45 -400 13 -587 44 -139 91 -214
182 -290 69 -58 91 -93 26 -41 l-39 31 -17 -45 c-11 -28 -16 -58 -12 -80 3
-21 2 -33 -4 -30 -5 4 -9 13 -9 21 0 19 3 20 -87 -26 -81 -41 -168 -63 -384
-94 -187 -28 -404 -14 -530 33 -58 23 -160 92 -211 145 -52 53 -157 199 -194
270 -16 31 -35 56 -43 56 -25 0 -75 -47 -101 -94 l-24 -45 29 -32 c40 -42 231
-185 277 -206 21 -10 38 -22 38 -26 1 -36 -207 109 -332 231 l-96 94 -28 -48
c-27 -46 -61 -190 -48 -203 3 -3 39 -11 80 -18 74 -11 334 -100 334 -114 0 -8
-91 20 -176 55 -65 27 -210 56 -281 56 l-44 0 6 -58 c11 -107 27 -192 35 -192
4 0 24 7 44 15 57 24 170 35 240 24 74 -12 132 -45 208 -117 92 -87 128 -186
108 -291 -5 -30 -8 -56 -6 -58 2 -2 29 -7 59 -10 52 -5 167 19 167 36 0 3 -14
33 -30 65 -45 88 -41 154 14 215 l21 24 -26 -6 c-14 -4 -49 -3 -79 2 -60 10
-101 45 -99 84 1 17 4 14 12 -11 16 -51 55 -66 149 -59 62 5 91 2 143 -14 84
-26 234 -46 451 -60 147 -10 192 -9 319 5 192 22 276 40 354 76 63 30 99 35
45 7 -18 -9 -23 -17 -15 -21 18 -12 134 48 182 93 41 39 44 44 43 94 0 28 -6
89 -14 134 -12 69 -12 93 -1 145 29 141 106 224 295 317 188 92 316 212 348
326 15 52 33 72 23 25 -9 -42 -44 -112 -79 -159 -40 -53 -30 -57 84 -35 l25 5
-25 -16 c-16 -10 -44 -14 -80 -13 -51 2 -60 -1 -117 -42 -34 -25 -62 -50 -62
-57 -2 -24 60 -63 99 -63 21 0 42 -4 45 -10 9 -14 -61 -13 -88 1 -12 6 -35 24
-52 40 l-30 28 -62 -36 c-54 -30 -63 -39 -63 -62 0 -36 36 -89 79 -118 25 -17
29 -23 15 -23 -10 0 -28 7 -38 15 -27 20 -31 19 -44 -10 -25 -55 -7 -160 37
-207 27 -30 19 -39 -10 -12 -23 21 -37 11 -45 -32 -8 -44 10 -107 38 -134 12
-11 19 -23 15 -26 -3 -3 -18 6 -32 20 -14 15 -30 24 -36 21 -16 -10 -41 -117
-36 -151 3 -19 15 -46 26 -61 32 -40 24 -53 -9 -14 l-29 34 -20 -34 c-27 -45
-36 -91 -23 -129 11 -31 -1 -44 -12 -14 -6 15 -8 15 -27 -2 -30 -27 -48 -66
-58 -126 -7 -42 -10 -49 -16 -30 -10 31 -28 28 -65 -14 -35 -40 -50 -73 -50
-110 0 -13 -5 -24 -11 -24 -7 0 -9 12 -4 36 l6 37 -33 -20 c-33 -19 -61 -63
-75 -118 l-7 -30 -4 32 c-2 18 -6 33 -10 33 -25 0 -86 -57 -102 -96 -21 -48
-36 -59 -26 -18 6 23 5 25 -16 19 -49 -15 -82 -42 -106 -85 l-24 -45 6 37 7
37 -38 -11 c-56 -15 -88 -34 -112 -65 -20 -26 -21 -26 -16 -5 7 24 11 24 -68
7 -15 -3 -46 -22 -69 -43 -30 -27 -38 -31 -29 -15 11 22 10 23 -33 23 -35 0
-54 -7 -90 -35 -42 -32 -63 -36 -34 -7 20 20 2 24 -58 12 -36 -8 -65 -21 -77
-34 -20 -22 -21 -22 -39 -4 -10 10 -30 18 -45 18 -34 0 -88 -31 -103 -60 -6
-12 -14 -19 -17 -16 -3 3 0 12 7 21 10 12 8 16 -16 26 -16 6 -51 9 -78 6 -38
-3 -53 -10 -71 -32 -22 -28 -22 -28 -21 -5 2 48 -97 50 -135 2 l-21 -27 7 26
c6 23 2 28 -26 38 -48 17 -93 13 -122 -9 -27 -22 -48 -27 -29 -8 20 20 14 27
-30 38 -43 12 -104 6 -125 -12 -16 -13 -17 4 -3 18 24 24 -69 59 -130 49 -26
-4 -40 -3 -40 4 0 6 6 11 13 11 6 1 1 10 -13 21 -20 17 -34 20 -72 17 -27 -3
-48 -1 -48 3 0 5 5 9 10 9 23 0 7 18 -29 35 -25 11 -56 16 -85 14 -25 -2 -46
-1 -46 3 0 5 7 8 15 8 25 0 17 19 -17 40 -23 14 -51 20 -93 20 -47 1 -56 3
-42 11 18 10 18 12 -4 35 -27 29 -88 47 -126 38 -24 -6 -26 -5 -16 7 10 12 7
20 -13 42 -36 39 -80 59 -136 61 -26 0 -48 4 -48 9 0 4 9 7 20 7 23 0 24 4 8
33 -17 33 -37 45 -95 57 -39 9 -51 15 -46 26 12 31 -60 84 -142 104 l-30 8 33
1 c40 1 41 18 5 62 -31 36 -86 63 -113 54 -10 -3 -21 -1 -25 5 -3 6 3 10 14
10 33 0 26 38 -13 75 -23 21 -52 36 -83 43 -48 10 -48 10 -10 11 49 1 49 22
-1 72 -28 27 -51 40 -81 45 -48 8 -65 24 -26 24 25 0 27 3 20 27 -10 39 -20
50 -73 69 -62 23 -77 37 -30 29 32 -6 38 -4 38 10 0 26 -73 94 -109 101 -17 4
-31 10 -31 14 0 5 10 6 22 2 19 -5 21 -2 14 29 -3 19 -17 45 -31 58 -20 21
-33 24 -80 23 -51 -1 -55 0 -45 17 5 10 24 31 41 45 30 26 31 28 13 41 -11 8
-37 15 -60 15 -27 0 -54 9 -78 25 -20 13 -36 23 -36 22 0 -20 103 -255 143
-326 145 -258 319 -498 496 -684 132 -139 463 -417 611 -513 41 -27 91 -61
110 -75 69 -52 373 -197 465 -223 325 -90 630 -109 980 -62 292 39 369 58 645
159 268 97 524 235 679 366 346 293 599 706 680 1111 42 209 51 300 51 514 l0
209 -25 -23 c-14 -13 -38 -47 -55 -76 -42 -74 -50 -73 -29 2 27 98 32 168 20
279 -17 147 -67 242 -152 285 -82 42 -156 16 -200 -71 -23 -44 -29 -50 -34
-34 -44 132 -125 227 -240 282 -72 34 -90 38 -190 44 l-110 7 121 -2 c117 -1
122 -2 196 -39 89 -43 161 -116 204 -203 l27 -55 23 28 c13 15 23 31 24 35 0
16 67 41 106 40 153 -2 249 -172 242 -429 -2 -62 -2 -113 -1 -113 2 0 21 20
43 44 69 75 185 109 256 74 84 -41 129 -179 122 -367 -5 -116 -7 -122 -85
-365 -6 -18 -5 -18 20 -1 19 12 37 15 60 11 67 -12 107 -86 107 -194 0 -192
-122 -370 -367 -536 l-103 -69 28 -17 c41 -26 71 -63 82 -101 14 -49 12 -144
-4 -183 -28 -68 -143 -169 -256 -226 -118 -60 -318 -110 -439 -110 -87 0 -96
-7 -74 -51 22 -44 22 -125 0 -167 -22 -41 -111 -111 -191 -150 -87 -42 -301
-109 -441 -137 -140 -28 -278 -41 -610 -55 -132 -6 -283 -17 -335 -26 -146
-25 -143 -27 65 -48 186 -19 287 -20 515 -6 336 21 570 59 837 136 456 130
736 296 1079 638 154 154 193 200 266 311 275 416 418 848 418 1259 0 482
-141 951 -405 1346 -170 255 -327 432 -493 557 -80 61 -195 123 -226 123 -25
0 -35 -33 -34 -112 1 -64 -2 -81 -27 -126 -16 -29 -63 -86 -106 -127 -115
-109 -254 -170 -450 -196 -82 -10 -105 -10 -165 4 -85 19 -124 34 -124 46 0 5
28 1 63 -10 63 -19 193 -25 271 -12 l39 6 -24 18 -23 17 34 9 c34 9 34 10 13
22 -33 17 -28 28 15 36 l37 8 -45 21 c-41 19 -63 21 -257 21 -116 0 -214 3
-218 7 -11 10 4 28 23 28 9 0 37 10 62 21 39 19 43 22 25 29 -32 14 -160 11
-238 -4 -178 -35 -189 -30 -85 38 l71 46 -49 0 c-30 0 -86 -12 -140 -31 -73
-25 -105 -31 -179 -32 -50 0 -99 4 -109 10 -18 10 -18 11 5 23 13 7 48 29 78
49 l54 36 -37 3 c-21 2 -88 -12 -158 -32 -138 -41 -159 -42 -240 -20 -64 18
-68 34 -7 34 22 0 50 5 61 11 19 10 15 13 -38 36 -51 21 -69 23 -134 19 -109
-8 -142 4 -195 72 -58 73 -78 127 -104 282 -26 155 -27 277 -2 428 60 360 73
498 68 670 -6 206 -23 283 -91 427 -59 124 -105 183 -190 250 -115 89 -310
165 -424 165 l-44 0 6 -36 c7 -33 6 -35 -13 -25 -39 21 -80 13 -112 -21 -16
-18 -29 -27 -29 -19 0 7 13 26 29 42 22 21 39 29 65 29 30 0 36 4 36 21 0 36
19 58 93 108 77 52 111 84 106 99 -2 5 -21 -4 -43 -19z m-92 -327 c3 -5 -9 -9
-26 -9 -21 0 -36 -7 -46 -21 -11 -18 -18 -20 -34 -11 -28 15 -48 4 -48 -26 0
-22 -3 -25 -27 -19 -19 5 -30 2 -39 -11 -16 -21 -27 -16 -18 9 3 9 17 19 31
22 14 4 35 17 49 31 17 17 30 22 47 18 15 -4 28 -1 36 9 14 17 66 22 75 8z
m-1628 -1624 c27 -76 23 -177 -8 -254 l-25 -62 55 -5 c56 -6 102 -35 102 -65
0 -8 -12 -2 -29 17 -38 41 -100 43 -151 6 -39 -29 -53 -25 -22 8 59 63 96 218
74 312 l-9 40 -12 -43 c-7 -24 -31 -64 -56 -92 -25 -28 -45 -54 -46 -58 0 -4
-2 -44 -3 -89 -2 -64 -9 -93 -29 -135 -38 -77 -47 -121 -47 -228 0 -52 -7
-119 -14 -149 -15 -53 -59 -131 -75 -131 -5 0 -14 13 -21 29 -20 48 5 98 60
121 l28 11 4 132 c3 111 8 139 26 174 l22 42 -25 37 c-46 68 -32 111 71 214
77 78 94 112 94 182 0 53 15 47 36 -14z m4706 -618 c22 -30 73 -272 88 -419 5
-57 9 -196 8 -310 l-1 -206 -8 213 c-10 274 -24 409 -53 524 -28 109 -63 195
-75 182 -4 -5 -25 -79 -46 -164 -43 -173 -122 -420 -168 -523 -16 -37 -31 -66
-33 -65 -1 2 28 89 66 194 46 128 81 246 105 359 53 247 70 278 117 215z m159
-110 c50 -66 109 -182 155 -304 71 -184 187 -720 182 -836 -1 -33 -1 -34 -5
-5 -7 56 -54 299 -84 435 -39 178 -115 404 -179 532 -49 98 -108 198 -116 198
-2 0 -1 -19 1 -42 29 -251 35 -320 41 -424 5 -86 4 -123 -5 -128 -8 -5 -11 9
-11 47 0 46 -25 340 -46 536 -6 58 -6 63 10 54 9 -5 35 -34 57 -63z m-331
-175 c0 -53 -17 -61 -22 -10 l-3 34 -65 -51 c-87 -68 -208 -124 -322 -148
-130 -28 -175 -24 -53 5 55 13 125 33 155 45 76 30 187 101 234 149 32 33 43
38 58 30 13 -7 18 -21 18 -54z m553 23 c13 -13 46 -69 75 -125 218 -424 310
-944 258 -1453 l-13 -125 0 270 c0 349 -18 524 -80 770 -56 226 -127 417 -200
540 -31 52 -58 93 -60 91 -3 -3 24 -114 106 -427 50 -194 82 -431 80 -594 -1
-96 -17 -143 -18 -55 -1 63 -24 328 -37 420 -8 57 -83 366 -129 529 -19 69
-35 137 -35 153 0 35 22 37 53 6z m-569 -116 c-4 -12 -10 -22 -15 -22 -10 0
-12 21 -3 45 9 24 24 4 18 -23z m-19 -74 c-4 -18 -18 -59 -32 -93 -25 -63 -24
-53 4 58 17 66 41 97 28 35z m-667 -375 c-35 -34 -131 -45 -163 -18 l-20 17
20 -8 c11 -5 44 -9 72 -9 41 0 57 5 75 23 12 12 27 22 32 22 6 0 -2 -12 -16
-27z m1651 -78 c35 -93 79 -285 97 -415 13 -98 15 -170 10 -330 -8 -305 -32
-463 -112 -738 -22 -75 -28 -58 -9 24 63 270 86 427 105 720 11 173 3 318 -25
441 -16 71 -96 316 -101 311 -1 -2 3 -62 11 -134 37 -357 26 -811 -26 -1056
-18 -81 -20 -48 -5 63 43 304 45 758 6 979 -20 118 -26 211 -13 224 12 11 40
-29 62 -89z m136 -1413 c-24 -108 -88 -289 -137 -385 -39 -78 -155 -267 -164
-267 -6 0 12 34 54 99 60 94 132 257 193 440 32 97 59 185 60 196 0 11 3 14 6
7 3 -7 -3 -47 -12 -90z m-190 -203 c-25 -54 -32 -41 -9 15 11 25 21 41 23 35
2 -6 -5 -28 -14 -50z m20 -60 c-9 -17 -19 -29 -21 -26 -7 7 18 57 28 57 5 0 1
-14 -7 -31z m-55 -109 c-13 -28 -27 -50 -31 -50 -9 0 -4 14 26 72 28 56 32 36
5 -22z m-30 31 c0 -6 -4 -13 -10 -16 -5 -3 -10 1 -10 9 0 9 5 16 10 16 6 0 10
-4 10 -9z m-81 -143 c-26 -50 -107 -170 -145 -213 -38 -43 -20 -13 54 90 35
50 73 107 83 128 11 20 22 37 24 37 3 0 -4 -19 -16 -42z m-47 -295 c-11 -16
-37 -46 -57 -68 -23 -25 -17 -15 15 28 50 65 82 96 42 40z m-130 -160 c-59
-70 -225 -230 -312 -299 -172 -139 -486 -312 -724 -399 -89 -33 -388 -115
-418 -115 -28 0 9 13 148 51 244 66 496 171 722 301 193 110 352 236 521 411
51 53 96 97 98 97 3 0 -13 -21 -35 -47z m-1582 -842 c-20 -11 -107 -25 -98
-16 8 8 64 23 93 24 16 0 17 -1 5 -8z"/>
<path d="M350 4699 c-27 -37 -29 -103 -4 -130 26 -29 37 -10 42 81 5 89 -3 99
-38 49z"/>
<path d="M252 4130 c-13 -12 -22 -33 -22 -50 0 -51 27 -34 55 33 18 43 3 51
-33 17z"/>
<path d="M3326 6863 c9 -36 12 -39 25 -26 8 8 7 17 -3 32 -18 29 -30 26 -22
-6z"/>
<path d="M3250 6842 c0 -5 6 -16 13 -27 10 -13 16 -15 21 -6 4 6 2 18 -4 26
-13 16 -30 20 -30 7z"/>
<path d="M4800 6841 c0 -17 50 -50 106 -71 78 -29 97 -25 44 9 -54 35 -150 75
-150 62z"/>
<path d="M3180 6815 c0 -11 5 -27 10 -35 7 -12 12 -12 22 -2 10 10 8 17 -10
34 -21 22 -22 22 -22 3z"/>
<path d="M4500 6819 c-19 -6 -36 -12 -38 -14 -7 -7 37 -81 60 -101 34 -30 75
-54 93 -54 9 0 27 8 42 17 l25 17 -6 -31 c-6 -26 -4 -34 15 -43 25 -14 68 -16
124 -7 30 6 36 5 23 -3 -10 -6 -18 -17 -18 -25 0 -23 34 -35 96 -35 53 0 56
-1 38 -15 -17 -13 -12 -14 54 -15 46 0 71 -4 67 -10 -3 -5 -41 -10 -83 -10
-113 -1 -227 -24 -280 -57 -54 -34 -62 -48 -27 -57 37 -9 31 -29 -29 -86 -29
-28 -68 -77 -85 -109 -34 -65 -42 -128 -15 -117 65 25 61 30 66 -106 3 -94 9
-132 23 -160 21 -42 27 -45 45 -23 18 22 27 19 39 -15 35 -102 250 -238 268
-170 7 25 22 25 101 0 70 -22 193 -27 237 -10 26 10 27 11 11 35 -27 41 -20
50 64 79 89 31 123 54 145 96 24 46 20 53 -25 45 -52 -9 -52 1 6 81 53 75 74
122 74 164 0 25 -3 30 -17 26 -10 -3 -30 -8 -44 -11 -25 -6 -27 -11 -32 -83
-10 -145 -64 -235 -179 -301 -67 -39 -87 -40 -27 -3 57 37 112 101 146 172 24
48 28 70 31 170 5 132 7 126 -81 159 -65 24 -122 29 -97 8 8 -7 22 -21 30 -31
14 -18 13 -18 -8 -12 -29 10 -29 -7 1 -67 23 -44 23 -46 4 -51 -18 -4 -19 -11
-13 -58 5 -42 4 -49 -5 -34 -17 28 -29 2 -29 -64 0 -54 -1 -55 -18 -32 -16 21
-18 21 -41 6 -13 -9 -30 -33 -39 -53 -15 -33 -16 -34 -20 -13 -3 19 -8 23 -25
18 -12 -3 -27 -6 -34 -6 -6 0 -25 -14 -42 -31 -33 -32 -39 -32 -18 1 10 17 9
22 -3 31 -15 10 -88 7 -125 -5 -18 -6 -17 -5 3 10 36 27 27 42 -40 63 -35 10
-53 20 -40 20 39 2 37 28 -8 87 -28 38 -35 52 -22 45 12 -6 23 -11 26 -11 12
0 6 42 -10 71 -17 35 -12 48 11 29 23 -19 34 -2 42 58 5 47 7 50 25 39 17 -11
25 -6 62 35 38 44 43 46 58 32 16 -17 17 -16 122 34 5 3 7 -2 3 -10 -7 -20 66
-31 114 -18 19 6 35 10 35 10 1 0 0 -8 -3 -19 -8 -31 38 -36 122 -14 19 5 19
5 2 -14 -16 -18 -16 -21 -2 -33 9 -7 49 -15 90 -18 73 -5 74 -5 52 -23 l-22
-17 25 -10 c14 -5 50 -13 80 -17 43 -6 52 -10 39 -18 -14 -9 1 -24 90 -90 398
-299 696 -658 926 -1116 92 -185 245 -565 231 -578 -2 -2 -16 32 -31 74 -16
43 -59 148 -97 233 -212 475 -414 778 -727 1091 -152 151 -346 319 -370 319
-5 0 -15 -8 -25 -18 -15 -18 -15 -20 1 -35 10 -8 37 -23 61 -32 55 -22 73 -52
38 -61 -34 -8 -53 -31 -38 -46 6 -6 60 -24 119 -39 84 -22 113 -34 131 -55 28
-32 21 -42 -39 -52 -56 -10 -63 -34 -17 -58 18 -9 66 -27 106 -40 82 -25 142
-65 142 -95 0 -19 -4 -19 -61 -13 l-61 7 16 -31 c21 -40 61 -70 171 -126 98
-49 165 -99 165 -122 0 -17 -64 -19 -104 -4 -21 8 -26 7 -26 -7 0 -37 44 -84
133 -139 113 -71 164 -110 178 -136 17 -31 4 -33 -67 -9 -36 13 -67 21 -69 19
-2 -1 25 -39 60 -82 41 -52 87 -95 129 -123 62 -41 79 -64 56 -78 -7 -5 -47 9
-92 33 -5 2 -8 -3 -8 -11 0 -8 30 -44 67 -78 114 -109 133 -130 154 -171 23
-46 15 -67 -19 -49 -25 14 -42 14 -42 2 0 -6 40 -86 89 -178 141 -264 263
-592 277 -741 7 -77 32 -180 47 -189 16 -10 -1 397 -34 792 -31 380 -39 433
-71 462 -19 17 -21 17 -50 -20 -16 -20 -34 -34 -39 -31 -5 3 -9 74 -9 159 0
154 -9 210 -33 203 -6 -3 -18 -22 -25 -43 -16 -50 -32 -69 -45 -56 -6 6 -13
86 -17 179 -4 93 -10 175 -14 181 -14 22 -35 10 -58 -31 -13 -23 -28 -43 -35
-45 -14 -5 -32 57 -62 217 -29 153 -80 244 -95 170 -4 -23 -11 -31 -23 -28
-12 2 -31 41 -63 128 -44 123 -95 220 -117 227 -7 3 -13 -11 -15 -33 -2 -21
-8 -39 -13 -41 -16 -5 -67 80 -120 200 -30 67 -59 117 -77 132 -37 31 -48 31
-48 0 0 -14 -4 -25 -10 -25 -19 0 -93 76 -175 179 -104 133 -160 178 -160 129
0 -12 -5 -23 -11 -25 -5 -2 -48 29 -95 69 -116 100 -158 132 -197 152 -38 19
-52 14 -52 -19 0 -43 -32 -39 -167 19 -132 57 -203 77 -203 58 0 -6 8 -16 18
-21 23 -14 6 -14 -19 -1 -23 13 -25 36 -3 44 31 12 75 6 134 -18 33 -14 60
-21 60 -16 0 23 -309 193 -442 242 -92 34 -233 47 -298 27z m825 -381 c178
-40 337 -133 566 -329 178 -152 284 -259 371 -369 144 -185 466 -716 558 -920
52 -115 153 -397 147 -413 -1 -5 -34 69 -71 165 -78 196 -252 549 -351 713
-132 218 -318 456 -484 620 -45 44 -81 85 -81 91 0 17 -176 163 -284 236 -114
76 -203 121 -319 160 -78 26 -111 31 -224 36 -155 6 -201 -3 -294 -58 -79 -47
-120 -102 -151 -204 -28 -94 -22 -213 16 -291 46 -93 153 -176 274 -211 l47
-14 -42 4 c-62 6 -165 57 -221 111 -31 28 -60 69 -78 108 -27 57 -29 71 -29
182 0 109 2 125 26 175 34 70 118 152 191 185 125 57 253 64 433 23z"/>
<path d="M3103 6775 c6 -19 16 -35 24 -35 17 0 16 6 -4 41 -23 39 -33 37 -20
-6z"/>
<path d="M3040 6761 c0 -30 11 -51 26 -51 18 0 18 4 -1 40 -18 35 -25 38 -25
11z"/>
<path d="M2195 6758 c-18 -10 -12 -14 50 -29 91 -23 118 -23 146 0 23 18 23
18 -52 24 -41 3 -85 9 -99 12 -14 3 -34 0 -45 -7z"/>
<path d="M4374 6709 c3 -13 9 -42 12 -64 11 -79 13 -83 50 -95 19 -7 37 -10
40 -7 2 2 -9 37 -26 78 -16 41 -30 75 -30 75 0 1 -12 10 -26 19 -27 17 -27 17
-20 -6z"/>
<path d="M5100 6701 c0 -22 11 -35 63 -69 34 -22 71 -44 81 -48 18 -7 18 -4
-4 27 -37 51 -94 105 -118 111 -19 5 -22 2 -22 -21z"/>
<path d="M2950 6707 c0 -26 26 -50 44 -40 14 8 13 12 -14 31 -21 16 -30 18
-30 9z"/>
<path d="M2473 6690 c-22 -9 -32 -30 -15 -30 5 0 29 -14 54 -30 46 -31 46 -31
87 -14 l41 16 -46 30 c-53 33 -89 42 -121 28z"/>
<path d="M4010 6653 c0 -17 -5 -44 -11 -60 -8 -21 -7 -29 3 -32 7 -2 25 -17
40 -32 38 -37 39 -99 3 -135 -20 -19 -25 -35 -25 -72 0 -52 -26 -104 -60 -122
-12 -6 -40 -12 -63 -13 -38 -2 -42 -5 -48 -33 -13 -67 -69 -114 -136 -114 -23
0 -45 5 -48 10 -12 20 -25 9 -25 -22 0 -65 -116 -139 -195 -124 -30 6 -33 4
-39 -26 -13 -64 -88 -107 -163 -93 -30 5 -33 4 -33 -20 0 -64 -69 -125 -126
-111 -21 6 -23 2 -29 -38 -10 -63 -39 -105 -86 -124 -33 -13 -38 -19 -33 -36
4 -12 8 -23 11 -25 2 -3 52 42 111 100 187 184 303 273 473 365 363 194 468
275 539 418 26 52 30 70 30 145 0 93 -16 139 -64 196 l-25 30 -1 -32z"/>
<path d="M2640 6560 c-12 -8 -8 -16 24 -49 41 -42 95 -67 121 -57 12 4 10 10
-8 29 -12 13 -35 38 -50 55 -29 32 -59 40 -87 22z"/>
<path d="M4396 6406 c-3 -36 -13 -84 -21 -107 -17 -47 -14 -68 15 -94 20 -18
20 -17 20 18 0 20 9 59 20 87 25 64 26 121 2 143 -10 10 -21 17 -24 17 -3 0
-8 -29 -12 -64z"/>
<path d="M2780 6370 c0 -17 51 -124 68 -143 9 -11 29 -25 44 -33 l27 -14 -6
52 c-7 64 -34 112 -71 126 -52 19 -62 21 -62 12z"/>
<path d="M1460 6199 c-48 -29 -89 -68 -107 -104 -13 -23 -13 -28 -2 -19 121
94 178 144 162 144 -10 0 -34 -10 -53 -21z"/>
<path d="M1633 6191 c-35 -16 -42 -17 -47 -5 -3 8 -12 14 -21 14 -17 0 -20
-16 -4 -25 7 -5 4 -14 -7 -26 -19 -21 -40 -25 -46 -7 -3 7 -12 9 -24 4 -18 -7
-18 -8 -1 -17 20 -12 22 -30 5 -47 -9 -9 -17 -7 -34 9 -15 14 -24 17 -29 9 -4
-7 2 -18 14 -26 17 -12 19 -19 11 -35 -14 -25 -34 -24 -53 4 -12 18 -17 20
-29 9 -11 -11 -10 -16 6 -28 11 -8 26 -14 33 -14 7 0 13 -4 13 -8 0 -10 -134
-160 -159 -179 -14 -11 -14 -14 2 -30 18 -17 20 -16 70 37 29 31 84 103 123
160 85 124 94 133 174 171 34 16 59 33 55 39 -8 12 -2 13 -52 -9z"/>
<path d="M1696 6160 c-13 -38 -161 -338 -193 -392 -15 -26 -24 -50 -20 -54 10
-11 28 15 106 156 80 147 124 251 119 288 l-3 27 -9 -25z"/>
<path d="M4238 6067 c-54 -57 -58 -66 -58 -109 0 -55 8 -60 32 -20 10 15 33
49 53 76 24 32 35 59 35 82 0 19 -1 34 -2 34 -2 0 -29 -29 -60 -63z"/>
<path d="M1580 6112 c0 -5 10 -18 23 -30 18 -17 26 -19 35 -10 9 9 5 16 -16
30 -30 20 -42 22 -42 10z"/>
<path d="M2874 6078 c3 -13 8 -53 11 -90 6 -61 10 -70 41 -98 19 -16 36 -30
37 -30 1 0 3 37 5 81 l2 81 -39 39 c-44 44 -64 50 -57 17z"/>
<path d="M1570 6025 c13 -14 27 -25 32 -25 16 0 8 29 -11 40 -35 18 -45 11
-21 -15z"/>
<path d="M1307 6004 c-14 -14 -7 -30 23 -47 17 -10 30 -14 30 -8 0 16 -45 63
-53 55z"/>
<path d="M1510 5990 c0 -5 12 -20 27 -34 20 -19 29 -22 35 -13 12 19 10 22
-27 40 -19 9 -35 12 -35 7z"/>
<path d="M1222 5942 c-9 -7 -7 -15 12 -35 14 -15 32 -27 40 -27 12 0 11 7 -7
35 -24 37 -26 39 -45 27z"/>
<path d="M1480 5915 c0 -10 40 -45 51 -45 13 0 22 21 13 30 -12 12 -64 24 -64
15z"/>
<path d="M4035 5892 c-22 -15 -48 -43 -57 -62 -17 -34 -24 -91 -12 -103 8 -7
99 94 119 132 33 64 14 77 -50 33z"/>
<path d="M1141 5901 c-17 -11 -2 -41 35 -70 41 -32 44 -26 15 29 -28 53 -29
54 -50 41z"/>
<path d="M1420 5841 c0 -15 34 -31 64 -31 16 0 26 6 26 15 0 10 -10 15 -29 15
-16 0 -36 3 -45 6 -9 3 -16 1 -16 -5z"/>
<path d="M960 5809 c0 -20 11 -36 38 -59 30 -25 34 -32 22 -40 -8 -5 -24 -10
-35 -10 -19 -1 -19 -1 -2 -11 37 -22 257 38 257 70 0 16 -33 22 -70 11 -19 -6
-56 -10 -81 -10 -39 0 -52 5 -87 38 l-42 39 0 -28z"/>
<path d="M2893 5750 c8 -94 22 -134 53 -155 19 -12 25 -13 23 -3 -1 7 1 38 5
69 10 68 -3 100 -53 138 l-34 26 6 -75z"/>
<path d="M3844 5752 c-55 -33 -74 -68 -74 -133 l0 -52 55 59 c54 59 87 127 69
143 -5 5 -27 -3 -50 -17z"/>
<path d="M1390 5749 c0 -4 14 -12 32 -18 24 -9 34 -8 40 1 14 23 9 27 -32 25
-22 -1 -40 -4 -40 -8z"/>
<path d="M3598 5591 c-56 -36 -78 -74 -78 -138 l0 -48 60 65 c54 60 79 109 68
140 -2 6 -23 -2 -50 -19z"/>
<path d="M4460 5524 c-125 -10 -284 -36 -432 -73 -229 -57 -360 -123 -420
-212 -15 -23 -28 -47 -28 -53 0 -6 26 -22 58 -36 76 -33 188 -144 226 -224 37
-77 45 -184 22 -275 -21 -83 -93 -221 -157 -300 -28 -35 -49 -65 -46 -67 2 -2
39 5 83 17 138 37 165 41 209 35 23 -4 51 -13 61 -21 18 -14 17 -14 -9 -15
-32 0 -77 -21 -97 -45 -13 -15 -10 -16 36 -10 97 14 152 33 205 73 76 56 107
70 175 77 46 6 71 3 117 -13 32 -12 57 -18 55 -14 -2 4 -21 38 -42 76 -35 62
-40 78 -40 135 -1 105 42 156 145 175 74 13 265 -56 342 -124 19 -16 37 -30
39 -30 3 0 0 22 -5 49 -20 95 28 183 108 201 47 11 145 -4 194 -29 100 -52
221 -175 413 -421 25 -32 28 -33 28 -12 0 79 91 151 173 138 205 -33 367 -372
367 -770 0 -80 3 -146 8 -146 4 0 16 7 26 15 29 22 119 19 165 -5 82 -41 126
-110 162 -248 47 -184 3 -524 -91 -714 -17 -33 -30 -61 -30 -62 0 -1 18 -1 39
-1 49 0 84 -30 107 -91 13 -35 15 -67 12 -166 -5 -112 -9 -133 -47 -243 -58
-164 -134 -317 -231 -464 -123 -188 -156 -227 -395 -472 -193 -199 -299 -319
-280 -319 28 0 302 238 479 416 207 208 281 302 448 569 110 177 151 255 212
408 121 299 176 580 176 888 0 461 -168 999 -437 1405 -288 435 -839 810
-1379 938 -60 14 -157 33 -215 41 -104 15 -406 26 -509 19z m-504 -490 c64
-36 197 -166 290 -283 46 -57 84 -109 84 -113 0 -5 -33 31 -73 79 -87 104
-233 245 -300 292 l-48 33 25 -51 c44 -85 59 -171 53 -301 -3 -63 -10 -131
-16 -150 -11 -37 -50 -105 -55 -99 -2 2 10 45 26 94 59 178 49 290 -38 454
l-45 84 28 -7 c15 -4 47 -18 69 -32z m2115 -59 c68 -36 254 -229 384 -399 204
-269 389 -689 450 -1021 22 -121 45 -365 45 -479 0 -158 -37 -420 -82 -586
-37 -139 -129 -353 -216 -507 -47 -84 -95 -162 -105 -175 -15 -18 -14 -14 3
17 235 418 329 695 370 1095 42 406 -55 880 -266 1303 -93 188 -175 313 -296
452 -120 138 -318 317 -318 287 0 -6 40 -66 90 -134 180 -248 267 -404 368
-660 58 -146 138 -396 130 -404 -2 -2 -14 29 -27 69 -134 428 -273 711 -477
972 -53 67 -104 153 -104 175 0 14 16 13 51 -5z m432 -930 c20 -58 14 -58 -13
1 -23 52 -24 58 -11 50 5 -4 16 -26 24 -51z"/>
<path d="M2854 5473 c-14 -75 -9 -120 21 -164 32 -49 39 -43 49 43 8 61 -7
110 -44 143 -18 16 -19 15 -26 -22z"/>
<path d="M3343 5420 c-57 -44 -68 -65 -59 -116 7 -35 27 -56 34 -36 2 7 20 31
39 54 35 42 47 65 59 113 9 36 -12 32 -73 -15z"/>
<path d="M1215 5359 c-109 -34 -136 -50 -156 -93 -10 -22 -17 -42 -16 -43 2
-1 34 7 72 19 72 22 125 59 158 110 22 32 22 32 -58 7z"/>
<path d="M1405 5358 c-29 -15 -65 -50 -65 -61 0 -6 37 -8 89 -5 76 3 95 8 130
31 23 15 41 32 41 37 0 14 -170 12 -195 -2z"/>
<path d="M935 5344 c-40 -21 -81 -60 -118 -114 -58 -85 -129 -160 -178 -187
-53 -30 -56 -37 -34 -67 14 -18 16 -17 60 23 25 23 83 60 129 81 84 38 96 50
96 98 0 52 21 103 59 142 40 42 36 50 -14 24z"/>
<path d="M1644 5321 c-41 -25 -49 -38 -27 -45 56 -15 138 -27 158 -22 24 6 85
52 85 64 0 4 -19 7 -42 7 -24 1 -65 4 -93 8 -41 7 -56 5 -81 -12z"/>
<path d="M3147 5228 c-48 -71 -53 -97 -28 -146 29 -57 41 -61 41 -13 0 23 9
64 20 93 21 55 27 118 11 118 -5 0 -25 -24 -44 -52z"/>
<path d="M2824 5239 c-3 -6 -8 -37 -11 -69 -5 -48 -2 -65 17 -98 25 -45 45
-59 47 -33 1 9 5 42 9 75 6 47 4 65 -11 92 -19 35 -40 49 -51 33z"/>
<path d="M1894 5216 c-18 -14 -18 -15 11 -26 17 -6 47 -20 68 -31 37 -19 109
-25 154 -13 21 6 21 7 -13 30 -19 13 -48 31 -64 39 -37 19 -130 20 -156 1z"/>
<path d="M1255 5035 c-94 -20 -158 -48 -248 -108 -80 -53 -167 -135 -167 -157
0 -5 15 -10 34 -10 28 0 36 5 46 30 25 60 113 101 171 81 27 -9 29 -8 48 33
41 94 168 121 241 51 l26 -25 38 28 c45 32 100 35 170 8 52 -20 66 -35 75 -78
7 -32 7 -32 58 -29 68 3 116 -20 138 -66 9 -19 15 -45 13 -58 -4 -20 0 -24 33
-29 44 -7 97 -48 114 -89 7 -16 10 -48 8 -71 -4 -40 -3 -42 38 -61 62 -29 84
-64 84 -134 0 -57 1 -59 35 -77 63 -34 103 -162 70 -224 -8 -15 -3 -22 37 -42
69 -34 88 -66 88 -145 0 -65 1 -67 30 -76 75 -25 140 -104 138 -169 -1 -21 -5
-47 -8 -57 -5 -15 3 -21 42 -30 101 -26 173 -95 173 -168 l0 -28 82 0 c46 0
93 -4 106 -8 21 -8 22 -7 10 17 -7 17 -31 35 -70 53 -78 34 -165 127 -305 324
-150 211 -280 431 -318 538 -8 25 -20 50 -26 58 -7 7 -40 73 -74 147 -72 154
-105 206 -189 295 -66 69 -217 186 -287 222 -118 60 -318 84 -454 54z"/>
<path d="M2203 4995 c54 -51 62 -55 108 -55 27 0 49 4 49 8 0 10 -72 62 -117
86 -18 9 -47 16 -65 16 l-33 0 58 -55z"/>
<path d="M3016 4989 c-10 -28 -19 -69 -19 -92 0 -34 6 -45 34 -68 42 -35 51
-36 39 -3 -7 17 -7 38 0 63 20 72 8 151 -23 151 -7 0 -21 -23 -31 -51z"/>
<path d="M2800 4915 c0 -80 15 -129 47 -157 19 -17 19 -16 15 80 -5 104 -11
125 -42 142 -19 10 -20 7 -20 -65z"/>
<path d="M2364 4781 c29 -56 37 -61 131 -68 l70 -6 -35 37 c-40 43 -122 86
-162 86 l-28 0 24 -49z"/>
<path d="M2974 4703 c3 -15 10 -54 16 -85 13 -66 35 -88 89 -88 l34 0 -27 21
c-14 11 -26 24 -26 29 0 30 -44 121 -66 135 l-26 17 6 -29z"/>
<path d="M2430 4679 c25 -48 52 -69 90 -69 l37 0 -10 40 c-10 37 -14 40 -47
40 -19 0 -46 3 -59 7 -22 6 -23 4 -11 -18z"/>
<path d="M2850 4649 c0 -21 51 -114 72 -131 11 -10 31 -18 45 -18 23 0 23 1 8
17 -10 9 -25 35 -35 58 -23 54 -90 109 -90 74z"/>
<path d="M2500 4586 c0 -4 19 -29 42 -57 51 -59 96 -79 157 -70 l44 6 -26 30
c-31 38 -122 85 -176 92 -23 3 -41 3 -41 -1z"/>
<path d="M411 4464 c-18 -23 -33 -55 -37 -80 -12 -82 2 -76 38 16 20 52 35 96
34 98 -2 2 -18 -14 -35 -34z"/>
<path d="M2960 4471 c0 -11 25 -21 51 -21 12 0 16 5 13 15 -7 16 -64 21 -64 6z"/>
<path d="M515 4448 c-13 -19 -18 -21 -35 -10 -25 15 -30 15 -30 -2 0 -7 9 -16
21 -19 18 -5 19 -9 9 -27 -9 -17 -14 -19 -26 -9 -11 9 -18 9 -26 1 -13 -13 -2
-32 18 -32 10 0 14 -8 12 -22 -2 -14 -9 -22 -18 -20 -8 2 -19 4 -24 5 -6 1
-12 -6 -14 -15 -2 -12 5 -19 21 -23 23 -6 25 -12 32 -98 13 -164 8 -245 -17
-290 -27 -49 -88 -87 -138 -87 -19 0 -54 9 -78 20 -23 10 -42 15 -42 11 0 -13
33 -39 63 -50 15 -6 27 -14 27 -19 0 -9 -45 -44 -75 -57 -16 -8 -13 -10 21
-13 91 -7 233 82 268 167 27 68 31 160 11 276 -21 123 -13 185 35 256 22 33
26 47 19 61 -12 23 -15 23 -34 -4z"/>
<path d="M555 4370 c-19 -8 -19 -9 3 -9 12 -1 22 4 22 9 0 6 -1 10 -2 9 -2 0
-12 -4 -23 -9z"/>
<path d="M560 4330 l-25 -6 25 -7 c26 -7 34 -4 29 11 -2 4 -15 5 -29 2z"/>
<path d="M2764 4330 c-15 -6 -12 -10 18 -33 45 -34 82 -41 138 -24 l45 14 -35
18 c-38 20 -138 35 -166 25z"/>
<path d="M573 4278 c-32 -15 -28 -25 7 -20 17 2 30 10 30 18 0 16 -7 17 -37 2z"/>
<path d="M1770 4270 c-8 -7 -11 -13 -5 -16 46 -19 79 -50 96 -89 l20 -45 54 0
c51 0 55 2 55 24 0 28 -35 82 -72 109 -31 23 -125 34 -148 17z"/>
<path d="M3105 4217 l-90 -31 40 -12 c64 -20 86 -16 152 24 100 62 48 71 -102
19z"/>
<path d="M380 4225 c-10 -12 -9 -16 3 -21 9 -3 23 -4 33 -2 14 3 14 5 -3 21
-18 16 -22 16 -33 2z"/>
<path d="M573 4218 c-32 -15 -29 -25 7 -23 35 2 45 9 35 24 -8 13 -13 13 -42
-1z"/>
<path d="M1475 4215 c-29 -15 -55 -41 -55 -55 0 -4 22 -5 48 -2 43 4 53 1 83
-26 l35 -31 45 25 c55 32 53 29 40 52 -25 47 -136 67 -196 37z"/>
<path d="M1745 4156 c-61 -19 -117 -51 -148 -84 l-28 -29 43 -34 c56 -44 63
-53 159 -191 75 -110 137 -179 170 -190 8 -3 11 -9 7 -13 -22 -24 -106 66
-221 240 -26 39 -64 87 -84 107 -49 47 -153 100 -169 87 -21 -17 -45 -101 -51
-176 l-6 -72 67 -30 c143 -65 290 -186 348 -288 36 -63 61 -175 53 -233 -8
-54 -32 -116 -59 -152 -18 -25 -18 -29 -3 -45 31 -35 126 -75 180 -77 42 -1
51 2 48 14 -19 76 -20 107 -5 152 15 46 15 49 -5 74 -22 27 -26 74 -11 109 6
15 9 6 9 -33 1 -59 27 -96 75 -108 19 -4 36 -26 67 -82 31 -57 70 -104 148
-182 181 -180 303 -268 571 -408 154 -80 245 -114 304 -112 70 3 64 -3 -9 -9
l-70 -6 35 -22 c46 -30 107 -30 150 -1 27 19 43 49 99 188 59 148 72 171 123
226 32 33 75 73 98 89 22 15 40 31 40 35 0 4 -18 10 -39 14 -22 3 -59 21 -83
39 -26 20 -62 37 -87 41 -60 9 -96 30 -120 70 -17 27 -33 38 -76 50 -40 12
-63 27 -92 60 -24 28 -52 48 -76 54 -20 6 -50 20 -67 32 -17 12 -34 19 -37 16
-4 -3 -8 -53 -11 -110 -4 -81 -1 -115 13 -157 22 -66 97 -219 137 -276 16 -24
25 -43 20 -43 -10 0 -47 48 -78 103 -22 39 -22 39 -34 17 -8 -15 -11 -48 -8
-92 3 -37 2 -68 -2 -68 -13 0 -20 30 -20 90 l0 59 -92 43 c-430 198 -623 365
-763 660 -70 148 -132 418 -122 526 5 50 4 54 -19 63 -36 13 -127 11 -147 -3
-16 -12 -15 -23 17 -148 34 -137 54 -188 100 -249 33 -44 25 -53 -13 -17 -42
40 -64 98 -117 309 -26 107 -51 187 -58 186 -6 0 -29 -6 -51 -13z"/>
<path d="M360 4140 c0 -13 7 -20 19 -20 11 0 28 -3 38 -6 12 -4 9 2 -10 20
-34 31 -47 33 -47 6z"/>
<path d="M566 4140 c5 -5 24 -13 42 -16 25 -5 32 -3 32 10 0 12 -10 16 -42 16
-27 0 -39 -3 -32 -10z"/>
<path d="M613 4078 c-39 -10 -44 -28 -9 -28 13 0 31 -3 40 -6 11 -4 16 0 16
14 0 27 -8 31 -47 20z"/>
<path d="M340 4070 c0 -5 0 -13 0 -17 -1 -5 19 -10 44 -13 51 -7 51 4 -1 25
-42 18 -43 18 -43 5z"/>
<path d="M281 3988 c-10 -16 -8 -20 14 -28 31 -12 65 -13 82 -2 9 5 -4 15 -36
29 -47 19 -48 20 -60 1z"/>
<path d="M633 3981 c-13 -11 -23 -22 -23 -25 0 -9 43 -7 58 2 12 8 7 42 -7 42
-3 -1 -16 -9 -28 -19z"/>
<path d="M1324 3976 c-56 -25 -104 -95 -104 -152 0 -32 10 -30 45 6 17 17 43
32 64 36 64 11 67 12 77 63 10 46 9 50 -10 55 -29 8 -37 7 -72 -8z"/>
<path d="M288 3582 l-58 -3 0 -67 c0 -87 17 -282 31 -352 79 -413 130 -537
287 -698 73 -75 101 -96 172 -130 109 -51 173 -66 290 -66 118 0 183 15 283
66 100 52 163 121 222 242 51 106 64 156 65 247 0 128 -40 251 -112 342 -39
49 -153 125 -245 162 -56 23 -87 29 -180 33 -136 5 -217 -15 -314 -81 -76 -50
-122 -109 -184 -233 -46 -90 -47 -94 -40 -158 4 -36 11 -66 16 -66 16 0 49
-64 49 -96 0 -46 24 -50 49 -10 38 61 24 123 -25 112 -26 -5 -27 -4 -9 7 42
27 75 66 75 91 0 21 -5 26 -27 26 -38 0 -20 12 22 15 48 3 86 40 88 86 2 31 0
34 -30 37 -18 2 -33 8 -33 13 0 5 17 7 38 4 45 -6 106 14 110 36 2 9 -8 21
-24 28 -15 6 -24 14 -21 17 3 3 19 -2 36 -10 31 -17 117 -21 138 -8 8 5 9 13
3 22 -17 26 -11 31 10 10 25 -25 68 -43 87 -36 9 4 11 15 6 37 -4 23 -3 30 5
25 7 -4 12 -13 12 -20 0 -46 102 -63 108 -18 2 12 7 22 12 22 4 0 6 -9 3 -21
-7 -27 13 -64 44 -78 34 -16 43 -14 43 8 0 11 4 22 8 25 5 3 7 -16 4 -42 -3
-38 0 -52 17 -72 l22 -25 15 23 c23 31 36 28 18 -5 -20 -40 -18 -87 7 -109 17
-16 23 -16 42 -5 22 14 22 13 4 -6 -23 -27 -32 -84 -17 -113 9 -16 17 -20 36
-16 33 9 30 2 -11 -23 -40 -23 -65 -65 -48 -82 8 -8 17 -8 31 0 12 6 23 7 26
2 3 -5 -6 -12 -22 -16 -39 -10 -62 -34 -62 -67 0 -22 4 -29 18 -27 31 3 43 -1
37 -11 -3 -5 -18 -9 -33 -9 -56 3 -74 -2 -98 -28 -21 -23 -23 -28 -9 -35 25
-15 17 -29 -9 -17 -29 14 -105 4 -132 -16 -17 -12 -17 -17 -6 -35 19 -31 8
-36 -24 -11 -17 14 -41 21 -69 21 -52 0 -58 -6 -38 -36 25 -38 4 -28 -41 21
-31 32 -50 45 -70 45 -25 0 -27 -2 -21 -30 9 -40 -1 -38 -18 3 -17 39 -43 62
-79 71 -23 5 -27 3 -30 -21 -4 -26 -5 -24 -16 15 -9 30 -23 49 -45 62 -39 24
-47 25 -47 3 0 -38 -14 1 -15 42 0 32 -7 51 -22 67 -22 21 -23 21 -43 3 -24
-22 -25 -18 -4 24 13 26 13 37 4 67 -14 41 -33 52 -57 33 -15 -12 -16 -12 -8
6 17 42 16 80 -5 104 -12 13 -26 21 -35 17 -17 -6 -21 9 -4 19 20 13 28 53 18
89 -10 35 -31 47 -44 26 -3 -5 -11 -10 -17 -10 -5 0 4 16 21 35 25 28 30 42
25 63 -10 42 -23 62 -40 62 -13 0 -13 2 0 22 9 12 16 32 16 43 -1 22 -25 71
-34 68 -16 -7 -17 -1 -2 22 22 33 20 61 -5 78 -20 14 -20 16 -4 47 20 39 16
79 -10 94 -11 6 -46 10 -77 8z"/>
<path d="M1084 3514 c-11 -8 -56 -21 -99 -29 -112 -22 -165 -59 -165 -115 0
-17 4 -21 18 -15 9 4 49 13 87 21 95 20 164 70 188 137 8 20 -1 21 -29 1z"/>
<path d="M701 3445 c-6 -19 -33 -53 -58 -77 -72 -68 -104 -158 -67 -189 15
-12 19 -10 33 11 9 14 35 46 59 71 47 52 62 90 62 161 0 58 -12 68 -29 23z"/>
<path d="M176 3403 c10 -114 15 -142 34 -165 l19 -23 1 26 c0 49 -22 194 -32
207 -20 24 -26 11 -22 -45z"/>
<path d="M1183 3399 c-24 -24 -13 -35 70 -72 93 -42 154 -48 215 -20 l37 16
-41 7 c-22 3 -65 21 -94 40 -42 27 -66 35 -114 38 -41 2 -65 -1 -73 -9z"/>
<path d="M1450 3214 c0 -3 15 -23 33 -46 17 -22 46 -65 62 -97 29 -55 31 -56
77 -59 26 -2 55 1 64 6 13 7 11 12 -17 30 -18 11 -47 44 -64 74 -22 39 -43 59
-75 76 -42 21 -80 29 -80 16z"/>
<path d="M215 3090 c8 -16 15 -49 15 -74 0 -54 15 -90 47 -111 28 -19 28 -24
2 83 -20 79 -48 132 -71 132 -5 0 -2 -13 7 -30z"/>
<path d="M1858 2950 c-10 -18 -35 -38 -60 -49 l-43 -18 32 -16 c36 -19 114
-22 145 -6 23 12 54 78 41 89 -7 6 -83 30 -94 30 -2 0 -12 -14 -21 -30z"/>
<path d="M5370 2881 c-27 -51 0 -113 116 -266 14 -18 15 -13 11 65 -3 47 -10
104 -17 128 -24 77 -85 118 -110 73z"/>
<path d="M1603 2864 c-4 -10 -7 -68 -7 -129 -1 -108 0 -113 29 -156 l30 -44 7
65 c22 213 22 202 -4 239 -28 41 -46 49 -55 25z"/>
<path d="M281 2768 c49 -104 68 -134 92 -148 14 -8 29 -12 32 -8 3 3 -13 44
-37 92 -34 68 -48 88 -72 96 -16 5 -30 10 -32 10 -2 0 5 -19 17 -42z"/>
<path d="M5360 2576 c0 -46 -3 -97 -6 -113 -5 -26 -1 -32 34 -55 21 -14 45
-41 53 -60 l14 -33 6 30 c12 55 9 141 -6 193 -15 49 -66 122 -86 122 -5 0 -9
-38 -9 -84z"/>
<path d="M1484 2488 c-37 -58 -47 -83 -51 -130 -4 -36 -1 -69 7 -89 l13 -31
17 44 c9 23 33 67 53 96 20 29 39 68 43 87 8 43 -4 95 -21 95 -8 0 -35 -32
-61 -72z"/>
<path d="M451 2470 c54 -55 104 -90 129 -90 7 0 -18 33 -55 73 -54 58 -73 72
-100 74 l-32 2 58 -59z"/>
<path d="M390 2369 c0 -5 4 -9 8 -9 5 0 30 -37 57 -82 47 -80 101 -146 111
-136 6 7 -56 148 -82 184 -21 29 -94 62 -94 43z"/>
<path d="M2216 2355 c-22 -7 -48 -23 -60 -34 l-20 -21 34 0 c44 -1 105 -22
131 -46 19 -17 21 -17 44 11 13 17 24 33 25 36 0 4 -16 21 -35 38 -39 34 -61
37 -119 16z"/>
<path d="M1300 2315 c-25 -13 -73 -31 -108 -41 -73 -20 -109 -56 -119 -120
l-6 -37 47 32 c26 18 75 44 108 58 81 33 104 49 118 83 18 44 9 50 -40 25z"/>
<path d="M3135 2294 c-11 -21 -39 -50 -62 -64 -23 -15 -40 -30 -36 -34 13 -13
85 -5 121 13 74 38 125 111 77 111 -12 0 -35 3 -51 6 -26 5 -31 1 -49 -32z"/>
<path d="M648 2294 c-36 -19 -35 -34 2 -34 16 0 52 -9 80 -20 56 -22 133 -26
177 -9 27 10 25 12 -42 29 -38 10 -87 25 -107 34 -46 20 -75 20 -110 0z"/>
<path d="M5303 2148 l-29 -123 33 -75 c40 -88 59 -120 74 -120 6 0 7 5 4 10
-4 6 1 52 10 103 24 134 3 273 -48 316 -13 10 -19 -7 -44 -111z"/>
<path d="M2043 2155 c-31 -13 -75 -69 -88 -112 -7 -25 4 -30 24 -10 7 7 38 12
74 12 l62 0 19 53 c10 29 17 54 15 56 -14 12 -79 13 -106 1z"/>
<path d="M545 2001 c17 -10 57 -53 90 -95 37 -49 74 -85 98 -98 21 -10 40 -18
42 -16 7 6 -74 131 -107 165 -37 40 -84 63 -125 63 l-28 0 30 -19z"/>
<path d="M5220 1870 c0 -11 -23 -66 -51 -123 -43 -84 -53 -113 -56 -167 -3
-53 -1 -71 16 -97 11 -18 24 -33 28 -33 5 0 15 22 24 48 9 26 29 76 44 112 33
76 45 201 25 250 -14 34 -30 40 -30 10z"/>
<path d="M1971 1839 c-36 -36 -54 -88 -49 -148 4 -55 17 -60 43 -18 11 17 35
41 52 52 27 17 32 26 32 60 1 90 -24 108 -78 54z"/>
<path d="M818 1620 c39 -40 72 -77 72 -81 0 -11 74 -49 95 -49 8 0 15 2 15 5
0 3 -25 35 -55 72 -63 79 -107 111 -161 120 l-39 6 73 -73z"/>
<path d="M4322 1647 c-39 -28 -42 -34 -35 -62 11 -46 6 -84 -16 -121 -23 -38
-21 -40 17 -20 25 13 61 54 89 101 16 26 16 72 0 107 l-12 27 -43 -32z"/>
<path d="M4955 1402 c-86 -116 -92 -135 -71 -237 l8 -40 24 53 c12 28 43 78
67 110 64 83 79 116 75 169 -2 26 -7 48 -13 49 -5 2 -46 -45 -90 -104z"/>
<path d="M990 1371 c0 -5 9 -13 20 -16 11 -4 46 -30 78 -59 31 -29 71 -60 87
-68 37 -19 105 -32 105 -21 0 18 -137 142 -174 157 -42 17 -116 22 -116 7z"/>
<path d="M2778 1243 c-50 -4 -58 -7 -58 -24 0 -31 -18 -61 -58 -96 l-37 -33
43 0 c51 0 131 38 161 76 20 25 30 86 14 82 -5 -1 -34 -3 -65 -5z"/>
<path d="M4768 1175 c-10 -12 -59 -58 -110 -100 -103 -86 -117 -105 -118 -152
0 -38 13 -43 27 -11 5 12 47 50 93 83 89 64 135 127 128 178 l-3 25 -17 -23z"/>
<path d="M1292 1091 c-10 -6 -5 -10 16 -14 16 -3 49 -25 73 -48 56 -53 112
-79 172 -79 l48 0 -63 55 c-35 30 -81 64 -104 75 -41 20 -118 27 -142 11z"/>
<path d="M4320 841 c-143 -81 -159 -98 -175 -181 l-7 -35 35 38 c19 20 64 50
99 66 89 41 144 84 168 132 12 22 20 44 18 49 -2 5 -64 -26 -138 -69z"/>
<path d="M1610 824 c1 -12 170 -113 218 -130 45 -16 141 -18 162 -3 9 6 11 12
4 15 -5 2 -45 24 -87 48 -42 24 -91 49 -108 55 -42 14 -189 26 -189 15z"/>
<path d="M3872 645 c-84 -29 -160 -58 -168 -67 -14 -13 -58 -118 -50 -118 2 0
33 14 69 30 37 17 73 30 81 30 21 0 147 67 174 93 23 21 57 76 50 81 -2 1 -72
-21 -156 -49z"/>
<path d="M2103 600 c-23 -5 -52 -14 -65 -21 -20 -11 -14 -14 67 -34 50 -13
126 -32 169 -44 46 -12 110 -21 152 -21 74 0 134 15 118 29 -5 4 -65 20 -134
35 -69 16 -147 37 -175 47 -54 20 -67 21 -132 9z"/>
<path d="M3510 539 c-19 -4 -91 -16 -160 -25 -116 -15 -127 -18 -158 -47 -29
-28 -72 -94 -72 -112 0 -3 19 4 43 16 25 13 73 25 118 30 113 11 217 50 257
95 48 55 44 61 -28 43z"/>
<path d="M2633 471 c-17 -11 -36 -29 -42 -39 -10 -18 -4 -19 106 -25 136 -7
217 4 285 39 28 14 48 27 46 28 -1 2 -84 6 -183 10 -169 6 -182 6 -212 -13z"/>
</g>
</svg>
